<svg width="32" height="33" viewBox="0 0 32 33" fill="none" xmlns="http://www.w3.org/2000/svg">
<g id="Instagram" clip-path="url(#clip0_205_227)">
<path id="Vector" d="M16 3.28603C20.2747 3.28603 20.7765 3.30508 22.4661 3.3813C24.0286 3.45117 24.8734 3.71159 25.4387 3.9339C26.1882 4.22608 26.7217 4.56908 27.2807 5.12803C27.8396 5.68698 28.189 6.22053 28.4748 6.97003C28.6908 7.53533 28.9575 8.38011 29.0274 9.94264C29.1036 11.6322 29.1227 12.134 29.1227 16.4087C29.1227 20.6834 29.1036 21.1852 29.0274 22.8748C28.9575 24.4373 28.6971 25.2821 28.4748 25.8474C28.1826 26.5969 27.8396 27.1304 27.2807 27.6894C26.7217 28.2483 26.1882 28.5977 25.4387 28.8835C24.8734 29.0994 24.0286 29.3662 22.4661 29.4361C20.7765 29.5123 20.2747 29.5314 16 29.5314C11.7253 29.5314 11.2235 29.5123 9.53395 29.4361C7.97142 29.3662 7.12664 29.1058 6.56134 28.8835C5.81183 28.5913 5.27829 28.2483 4.71934 27.6894C4.16038 27.1304 3.81104 26.5969 3.52521 25.8474C3.30925 25.2821 3.04248 24.4373 2.97261 22.8748C2.89639 21.1852 2.87733 20.6834 2.87733 16.4087C2.87733 12.134 2.89639 11.6322 2.97261 9.94264C3.04248 8.38011 3.3029 7.53533 3.52521 6.97003C3.81739 6.22053 4.16038 5.68698 4.71934 5.12803C5.27829 4.56908 5.81183 4.21973 6.56134 3.9339C7.12664 3.71795 7.97142 3.45117 9.53395 3.3813C11.2235 3.29873 11.7316 3.28603 16 3.28603ZM16 0.402344C11.6554 0.402344 11.1092 0.421399 9.40056 0.49762C7.6983 0.57384 6.53593 0.846965 5.51965 1.24077C4.46527 1.64728 3.57602 2.19988 2.68678 3.08912C1.79754 3.97837 1.25129 4.87396 0.838428 5.92199C0.444621 6.93827 0.171497 8.10064 0.095276 9.80925C0.0190552 11.5115 0 12.0578 0 16.4023C0 20.7469 0.0190552 21.2932 0.095276 23.0018C0.171497 24.7041 0.444621 25.8664 0.838428 26.889C1.24494 27.9434 1.79754 28.8327 2.68678 29.7219C3.57602 30.6112 4.47162 31.1574 5.51965 31.5703C6.53593 31.9641 7.6983 32.2372 9.40691 32.3134C11.1155 32.3896 11.6554 32.4087 16.0064 32.4087C20.3573 32.4087 20.8972 32.3896 22.6058 32.3134C24.3081 32.2372 25.4704 31.9641 26.4931 31.5703C27.5475 31.1638 28.4367 30.6112 29.3259 29.7219C30.2152 28.8327 30.7614 27.9371 31.1743 26.889C31.5681 25.8728 31.8412 24.7104 31.9174 23.0018C31.9937 21.2932 32.0127 20.7533 32.0127 16.4023C32.0127 12.0514 31.9937 11.5115 31.9174 9.8029C31.8412 8.10064 31.5681 6.93827 31.1743 5.91564C30.7678 4.86126 30.2152 3.97201 29.3259 3.08277C28.4367 2.19353 27.5411 1.64728 26.4931 1.23442C25.4768 0.840613 24.3144 0.567489 22.6058 0.491268C20.8908 0.421399 20.3446 0.402344 16 0.402344Z" fill="black"/>
<path id="Vector_2" d="M16 8.18945C11.4649 8.18945 7.78085 11.8671 7.78085 16.4086C7.78085 20.9501 11.4585 24.6277 16 24.6277C20.5415 24.6277 24.2191 20.9501 24.2191 16.4086C24.2191 11.8671 20.5415 8.18945 16 8.18945ZM16 21.7377C13.0528 21.7377 10.6645 19.3494 10.6645 16.4022C10.6645 13.455 13.0528 11.0668 16 11.0668C18.9472 11.0668 21.3354 13.455 21.3354 16.4022C21.3354 19.3494 18.9472 21.7377 16 21.7377Z" fill="black"/>
<path id="Vector_3" d="M24.5431 9.77736C25.6025 9.77736 26.4613 8.91854 26.4613 7.85914C26.4613 6.79974 25.6025 5.94092 24.5431 5.94092C23.4837 5.94092 22.6248 6.79974 22.6248 7.85914C22.6248 8.91854 23.4837 9.77736 24.5431 9.77736Z" fill="black"/>
</g>
<defs>
<clipPath id="clip0_205_227">
<rect width="32" height="32" fill="white" transform="translate(0 0.402344)"/>
</clipPath>
</defs>
</svg>
