<svg width="32" height="33" viewBox="0 0 32 33" fill="none" xmlns="http://www.w3.org/2000/svg">
<g id="Twitter">
<path id="Vector" d="M28.076 9.97688C28.0884 10.2585 28.0884 10.5273 28.0884 10.8089C28.1007 19.3465 21.8281 29.2025 10.3571 29.2025C6.97385 29.2025 3.65232 28.1913 0.800003 26.2969C1.29391 26.3609 1.78782 26.3865 2.28173 26.3865C5.08465 26.3865 7.81349 25.4137 10.0237 23.6089C7.35662 23.5577 5.01056 21.7529 4.19562 19.1161C5.13404 19.3081 6.09716 19.2697 7.01089 19.0009C4.10918 18.4121 2.02242 15.7625 2.01008 12.6777C2.01008 12.6521 2.01008 12.6265 2.01008 12.6009C2.87441 13.1001 3.84988 13.3817 4.8377 13.4073C2.10886 11.5129 1.25687 7.73687 2.91146 4.78006C6.08481 8.82487 10.7522 11.2697 15.7654 11.5385C15.2591 9.29848 15.9506 6.94327 17.5682 5.35606C20.0747 2.91125 24.026 3.03926 26.3968 5.63766C27.792 5.35606 29.1379 4.81846 30.3604 4.06326C29.8911 5.56086 28.9157 6.82807 27.6192 7.63447C28.8539 7.48087 30.064 7.13527 31.2 6.62327C30.3604 7.92887 29.2985 9.05527 28.076 9.97688Z" fill="#1D9BF0"/>
</g>
</svg>
