<svg width="31" height="30" viewBox="0 0 31 30" fill="none" xmlns="http://www.w3.org/2000/svg">
<g id="Group 57">
<path id="Vector" d="M0.658746 14.9901C0.658022 17.4582 1.341 19.8681 2.63967 21.9922L0.534546 29.2496L8.40038 27.3022C10.576 28.4205 13.0135 29.0065 15.4906 29.0067H15.4971C23.6744 29.0067 30.3309 22.7237 30.3344 15.0012C30.336 11.2591 28.794 7.74022 25.9924 5.09283C23.1913 2.44567 19.4659 0.987059 15.4965 0.985352C7.31827 0.985352 0.662243 7.26795 0.658866 14.9901" fill="url(#paint0_linear_204_13)"/>
<path id="Vector_2" d="M0.129023 14.9856C0.128179 17.5425 0.835636 20.0386 2.18061 22.2388L0 29.7563L8.14787 27.7392C10.3929 28.8949 12.9205 29.5043 15.4925 29.5052H15.4992C23.9699 29.5052 30.8655 22.9962 30.8691 14.9973C30.8705 11.1207 29.2731 7.47533 26.3714 4.7331C23.4693 1.99121 19.6107 0.48011 15.4992 0.478516C7.02706 0.478516 0.132399 6.98655 0.129023 14.9856ZM4.98126 21.8598L4.67703 21.4038C3.39813 19.4838 2.72311 17.2649 2.72408 14.9866C2.72685 8.33791 8.45741 2.92871 15.504 2.92871C18.9165 2.93007 22.1235 4.18614 24.5356 6.46509C26.9476 8.74426 28.2749 11.774 28.274 14.9963C28.2709 21.645 22.5402 27.0549 15.4992 27.0549H15.4941C13.2015 27.0537 10.953 26.4724 8.99207 25.3738L8.52542 25.1125L3.6903 26.3095L4.98126 21.8597V21.8598Z" fill="#E9E9E9"/>
<path id="Vector_3" d="M11.6577 8.92088C11.37 8.3171 11.0672 8.30491 10.7936 8.29433C10.5696 8.28522 10.3134 8.2859 10.0576 8.2859C9.80145 8.2859 9.38532 8.37687 9.03358 8.7395C8.68148 9.10248 7.68933 9.97963 7.68933 11.7636C7.68933 13.5478 9.06554 15.2719 9.25738 15.5141C9.44947 15.7558 11.9142 19.534 15.8177 20.9875C19.0618 22.1954 19.722 21.9552 20.4261 21.8946C21.1303 21.8342 22.6983 21.0177 23.0182 20.1709C23.3384 19.3243 23.3384 18.5986 23.2424 18.4469C23.1464 18.2958 22.8903 18.2051 22.5063 18.0238C22.1221 17.8424 20.234 16.9652 19.882 16.8441C19.5299 16.7232 19.2739 16.6629 19.0178 17.026C18.7617 17.3885 18.0263 18.2051 17.8021 18.4469C17.5782 18.6893 17.354 18.7195 16.9701 18.5381C16.5858 18.3562 15.349 17.9737 13.8816 16.7385C12.7399 15.7773 11.9692 14.5904 11.7451 14.2273C11.5211 13.8647 11.7211 13.6682 11.9137 13.4875C12.0862 13.3251 12.2979 13.0641 12.4901 12.8525C12.6816 12.6407 12.7455 12.4896 12.8735 12.2478C13.0017 12.0057 12.9376 11.7939 12.8417 11.6126C12.7455 11.4312 11.9992 9.63783 11.6577 8.92088Z" fill="white"/>
</g>
<defs>
<linearGradient id="paint0_linear_204_13" x1="1490.53" y1="2827.41" x2="1490.53" y2="0.985352" gradientUnits="userSpaceOnUse">
<stop stop-color="#1FAF38"/>
<stop offset="1" stop-color="#60D669"/>
</linearGradient>
</defs>
</svg>
